<svg width="24" height="24" viewBox="0 0 24 24" fill="none" xmlns="http://www.w3.org/2000/svg">
<path opacity="0.28" d="M14 8.25C13.363 8.25 12.801 8.282 12.323 8.387C11.837 8.494 11.392 8.687 11.039 9.039C10.686 9.391 10.494 9.837 10.387 10.323C10.282 10.801 10.25 11.363 10.25 12V20.75H15V19C15 18.7348 15.1054 18.4804 15.2929 18.2929C15.4804 18.1054 15.7348 18 16 18C16.2652 18 16.5196 18.1054 16.7071 18.2929C16.8946 18.4804 17 18.7348 17 19V20.75H21.75V12C21.75 11.363 21.718 10.801 21.613 10.323C21.506 9.837 21.314 9.392 20.961 9.039C20.608 8.686 20.163 8.494 19.677 8.387C19.199 8.282 18.637 8.25 18 8.25H14Z" fill="#141414"/>
<path d="M17 19V20.75H15V19C15 18.7348 15.1054 18.4804 15.2929 18.2929C15.4804 18.1054 15.7348 18 16 18C16.2652 18 16.5196 18.1054 16.7071 18.2929C16.8946 18.4804 17 18.7348 17 19ZM12.002 6.922C12.639 6.782 13.331 6.75 14 6.75H15.15C15.433 6.75 15.574 6.75 15.662 6.662C15.75 6.574 15.75 6.432 15.75 6.15V5C15.75 4.363 15.718 3.801 15.613 3.323C15.506 2.837 15.314 2.392 14.961 2.039C14.608 1.686 14.163 1.494 13.677 1.387C13.199 1.282 12.637 1.25 12 1.25H6C5.363 1.25 4.801 1.282 4.323 1.387C3.837 1.494 3.392 1.687 3.039 2.039C2.686 2.391 2.494 2.837 2.387 3.323C2.282 3.801 2.25 4.363 2.25 5V5.25H5C5.19891 5.25 5.38968 5.32902 5.53033 5.46967C5.67098 5.61032 5.75 5.80109 5.75 6C5.75 6.19891 5.67098 6.38968 5.53033 6.53033C5.38968 6.67098 5.19891 6.75 5 6.75H2.25V9.25H5C5.19891 9.25 5.38968 9.32902 5.53033 9.46967C5.67098 9.61032 5.75 9.80109 5.75 10C5.75 10.1989 5.67098 10.3897 5.53033 10.5303C5.38968 10.671 5.19891 10.75 5 10.75H2.25V13.25H5C5.19891 13.25 5.38968 13.329 5.53033 13.4697C5.67098 13.6103 5.75 13.8011 5.75 14C5.75 14.1989 5.67098 14.3897 5.53033 14.5303C5.38968 14.671 5.19891 14.75 5 14.75H2.25V20.75H8.75V12C8.75 11.33 8.782 10.64 8.922 10.001C9.068 9.338 9.359 8.597 9.978 7.978C10.598 7.359 11.338 7.068 12.002 6.922Z" fill="#141414"/>
<path fill-rule="evenodd" clip-rule="evenodd" d="M14.25 12C14.25 11.8011 14.329 11.6103 14.4697 11.4697C14.6103 11.329 14.8011 11.25 15 11.25H17C17.1989 11.25 17.3897 11.329 17.5303 11.4697C17.671 11.6103 17.75 11.8011 17.75 12C17.75 12.1989 17.671 12.3897 17.5303 12.5303C17.3897 12.671 17.1989 12.75 17 12.75H15C14.8011 12.75 14.6103 12.671 14.4697 12.5303C14.329 12.3897 14.25 12.1989 14.25 12ZM14.25 15C14.25 14.8011 14.329 14.6103 14.4697 14.4697C14.6103 14.329 14.8011 14.25 15 14.25H17C17.1989 14.25 17.3897 14.329 17.5303 14.4697C17.671 14.6103 17.75 14.8011 17.75 15C17.75 15.1989 17.671 15.3897 17.5303 15.5303C17.3897 15.671 17.1989 15.75 17 15.75H15C14.8011 15.75 14.6103 15.671 14.4697 15.5303C14.329 15.3897 14.25 15.1989 14.25 15Z" fill="#141414"/>
<path d="M2.25 20.75C1.98478 20.75 1.73043 20.8554 1.54289 21.0429C1.35536 21.2304 1.25 21.4848 1.25 21.75C1.25 22.0152 1.35536 22.2696 1.54289 22.4571C1.73043 22.6446 1.98478 22.75 2.25 22.75H21.75C22.0152 22.75 22.2696 22.6446 22.4571 22.4571C22.6446 22.2696 22.75 22.0152 22.75 21.75C22.75 21.4848 22.6446 21.2304 22.4571 21.0429C22.2696 20.8554 22.0152 20.75 21.75 20.75H2.25Z" fill="#141414"/>
</svg>
