<svg width="137" height="40" viewBox="0 0 137 40" fill="none" xmlns="http://www.w3.org/2000/svg">
<g clip-path="url(#clip0_1500_308)">
<path d="M51.4799 19.8704C51.4799 15.6827 50.2852 13.5333 47.898 13.4155C46.9476 13.3707 46.0207 13.5221 45.1177 13.8725C44.3977 14.1301 43.9124 14.3856 43.6575 14.6432V24.6379C45.1849 25.5963 46.5417 26.0421 47.7247 25.9723C50.2276 25.8123 51.4804 23.7749 51.4804 19.8709L51.4799 19.8704ZM54.4255 20.0443C54.4255 22.1776 53.9268 23.9376 52.9231 25.3419C51.8047 26.9312 50.2548 27.7493 48.2724 27.7941C46.7791 27.8475 45.2399 27.3739 43.6559 26.3925V35.4768L41.0938 34.5627V14.3995C41.514 13.8837 42.0553 13.4411 42.7108 13.0651C44.2361 12.1765 46.0884 11.7195 48.2681 11.6971L48.3044 11.7333C50.2975 11.7083 51.8335 12.5264 52.9124 14.1856C53.9188 15.7077 54.4233 17.6523 54.4233 20.0437L54.4255 20.0443ZM70.0826 26.0059C70.0826 28.8592 69.7967 30.8352 69.2249 31.9339C68.6532 33.0325 67.5572 33.9099 65.9428 34.5632C64.634 35.0789 63.2185 35.3595 61.6991 35.4069L61.2756 33.7925C62.8201 33.5824 63.9076 33.3723 64.538 33.1621C65.7796 32.7419 66.6319 32.0971 67.0996 31.2336C67.4751 30.5296 67.6596 29.1877 67.6596 27.2005V26.5339C65.9312 27.324 64.0523 27.7304 62.1519 27.7253C60.9338 27.7422 59.7504 27.3192 58.8191 26.5339C57.7428 25.6677 57.2047 24.5691 57.2047 23.2379V12.5712L59.7663 11.6939V22.4245C59.7663 23.5712 60.1364 24.4539 60.8756 25.0731C61.6148 25.6923 62.5743 25.9904 63.7487 25.9669C64.9231 25.9435 66.1817 25.4869 67.5183 24.5989V12.0843H70.0799V26.0059H70.0826ZM80.0825 27.6592L79.2388 27.6955C77.7897 27.6955 76.6601 27.3509 75.8532 26.6587C75.0489 25.9664 74.6452 25.0053 74.6452 23.7915V13.7008H72.8852V12.0891H74.6452V7.80427L77.2041 6.89333V12.0843H80.0825V13.696H77.2041V23.7163C77.2041 24.6779 77.4617 25.3589 77.9775 25.7568C78.4201 26.0848 79.1241 26.2725 80.0825 26.32V27.6544V27.6592ZM95.5935 27.4491H93.0319V17.56C93.0319 16.5536 92.7972 15.6933 92.3279 14.9648C91.7871 14.1461 91.0356 13.7371 90.0719 13.7371C88.8975 13.7371 87.4287 14.3557 85.6665 15.5952V27.4427H83.1049V3.80747L85.6665 3V13.7659C87.3039 12.5744 89.0916 11.9776 91.034 11.9776C92.3908 11.9776 93.4895 12.4347 94.33 13.3456C95.1737 14.2565 95.594 15.3915 95.594 16.7483V27.4443L95.5935 27.4491ZM109.211 19.4667C109.211 17.8576 108.905 16.5291 108.297 15.4784C107.574 14.1973 106.451 13.5221 104.931 13.4517C102.123 13.6144 100.721 15.6267 100.721 19.4784C100.721 21.2469 101.013 22.7243 101.601 23.9051C102.352 25.416 103.478 26.1611 104.981 26.136C107.801 26.1136 109.211 23.888 109.211 19.4565L109.211 19.4667ZM112.016 19.4837C112.016 21.7739 111.431 23.6795 110.256 25.2011C108.97 26.9051 107.193 27.76 104.925 27.76C102.677 27.76 100.925 26.9051 99.6612 25.2011C98.5145 23.6789 97.9428 21.7733 97.9428 19.4837C97.9428 17.3312 98.5615 15.5211 99.8009 14.0464C101.11 12.4821 102.83 11.6976 104.958 11.6976C107.086 11.6976 108.818 12.4827 110.152 14.0464C111.391 15.5205 112.01 17.3317 112.01 19.4837H112.016ZM126.703 27.4437H124.142V16.9947C124.142 15.848 123.797 14.9541 123.107 14.3093C122.417 13.6677 121.498 13.3563 120.352 13.3813C119.136 13.4037 117.979 13.8016 116.885 14.5728V27.4437H114.324V14.2565C115.798 13.1829 117.155 12.4821 118.393 12.1541C119.566 11.8485 120.593 11.6971 121.486 11.6971C122.094 11.6971 122.667 11.7504 123.205 11.8731C124.211 12.1056 125.029 12.5376 125.66 13.1707C126.364 13.8715 126.714 14.7173 126.714 15.696V27.4427L126.703 27.4437Z" fill="#141414"/>
<path d="M15.7926 3.90078C14.4753 3.90612 13.2156 4.01918 12.1084 4.22078C8.84542 4.79678 8.25342 6.00371 8.25342 8.22878V11.1621H15.9633V12.1418H5.36062C3.12062 12.1418 1.15795 13.4885 0.544617 16.0512C-0.163116 18.9882 -0.194583 20.8208 0.544617 23.8869C1.09288 26.1696 2.40168 27.7962 4.64222 27.7962H7.29288V24.2736C7.29288 21.7285 9.49555 19.4842 12.1089 19.4842H19.8102C21.9542 19.4842 23.6652 17.7242 23.6652 15.5664V8.22345C23.6652 6.13385 21.9025 4.56478 19.8102 4.21545C18.4824 3.99837 17.1381 3.89311 15.7926 3.90078ZM11.623 6.26345C12.4193 6.26345 13.07 6.92478 13.07 7.73705C13.07 8.54665 12.4193 9.20158 11.623 9.20158C10.823 9.20158 10.1761 8.54665 10.1761 7.73705C10.1761 6.92425 10.8236 6.26345 11.623 6.26345Z" fill="url(#paint0_linear_1500_308)"/>
<path d="M24.6262 12.1426V15.5666C24.6262 18.221 22.3755 20.4551 19.8102 20.4551H12.1088C9.99951 20.4551 8.25391 22.2604 8.25391 24.373V31.7148C8.25391 33.8044 10.071 35.0332 12.1088 35.6327C14.5494 36.3506 16.8896 36.4807 19.8102 35.6327C21.7515 35.0706 23.6651 33.9399 23.6651 31.7148V28.7815H15.9627V27.8018H27.52C29.76 27.8018 30.5958 26.2391 31.375 23.8924C32.1803 21.4775 32.1456 19.1548 31.375 16.0567C30.8214 13.8258 29.7643 12.1474 27.52 12.1474H24.6267L24.6262 12.1426ZM20.2955 30.7346C21.0955 30.7346 21.7424 31.3895 21.7424 32.1991C21.7424 33.0119 21.095 33.6727 20.2955 33.6727C19.4992 33.6727 18.8486 33.0114 18.8486 32.1991C18.8486 31.3895 19.4992 30.7346 20.2955 30.7346Z" fill="url(#paint1_linear_1500_308)"/>
<path d="M131.693 9.79955H132.142V6.98248H133.206V6.64648H130.629V6.98248H131.693V9.79955ZM133.604 9.79955H133.988V7.22675L134.821 9.79902H135.248L136.116 7.23528V9.79955H136.535V6.64755H135.981L135.033 9.34835L134.224 6.64755H133.605V9.79955" fill="#141414"/>
</g>
<defs>
<linearGradient id="paint0_linear_1500_308" x1="0.000617218" y1="3.90132" x2="17.6353" y2="19.2202" gradientUnits="userSpaceOnUse">
<stop stop-color="#5A9FD4"/>
<stop offset="1" stop-color="#306998"/>
</linearGradient>
<linearGradient id="paint1_linear_1500_308" x1="20.1094" y1="31.9527" x2="13.8118" y2="22.957" gradientUnits="userSpaceOnUse">
<stop stop-color="#FFD43B"/>
<stop offset="1" stop-color="#FFE873"/>
</linearGradient>
<clipPath id="clip0_1500_308">
<rect width="136.533" height="40" fill="white"/>
</clipPath>
</defs>
</svg>
