<svg width="24" height="24" viewBox="0 0 24 24" fill="none" xmlns="http://www.w3.org/2000/svg">
<path opacity="0.28" d="M4.02401 3.188C2.63401 2.91 1.25001 3.942 1.25001 5.42V15.437C1.2484 15.9424 1.41927 16.4332 1.73437 16.8283C2.04947 17.2234 2.48995 17.4991 2.98301 17.61L3.63601 17.748C6.81301 18.388 8.78301 18.318 10.513 18.062C12.368 17.786 13.697 17.358 16 17.358C17.463 17.358 18.788 17.519 19.683 17.688C20.3949 17.7709 21.1119 17.5816 21.69 17.158C22.284 16.725 22.75 16.029 22.75 15.182V5.427C22.75 4.635 22.319 3.845 21.52 3.519C20.508 3.205 18.558 2.75 16 2.75C13.632 2.75 12.06 3.192 10.475 3.441C8.99001 3.675 7.31801 3.783 4.58501 3.294L4.02401 3.188Z" fill="#141414"/>
<path d="M15 10.5003C15 11.296 14.6839 12.0591 14.1213 12.6217C13.5587 13.1843 12.7957 13.5003 12 13.5003C11.2044 13.5003 10.4413 13.1843 9.87869 12.6217C9.31608 12.0591 9.00001 11.296 9.00001 10.5003C9.00001 9.70469 9.31608 8.94163 9.87869 8.37902C10.4413 7.81641 11.2044 7.50034 12 7.50034C12.7957 7.50034 13.5587 7.81641 14.1213 8.37902C14.6839 8.94163 15 9.70469 15 10.5003ZM1.25001 13.1963C3.65501 13.7093 5.54301 15.6683 5.91501 18.1163C5.15027 18.0251 4.38962 17.9023 3.63501 17.7483L2.98301 17.6103C2.49012 17.4995 2.04976 17.2239 1.73468 16.829C1.4196 16.4341 1.24863 15.9435 1.25001 15.4383V13.1963ZM22.75 15.1823C22.75 16.0293 22.284 16.7253 21.69 17.1573C21.1121 17.5816 20.3952 17.7717 19.683 17.6893C19.272 17.6126 18.8584 17.5503 18.443 17.5023C18.7257 16.5194 19.2797 15.6361 20.0415 14.9537C20.8033 14.2713 21.742 13.8175 22.75 13.6443V15.1823ZM18.548 2.90234C19.86 3.06234 20.878 3.31934 21.52 3.51834C22.319 3.84434 22.75 4.63534 22.75 5.42634V7.70634C21.6356 7.44478 20.6311 6.8408 19.8775 5.97921C19.1238 5.11761 18.6589 4.04164 18.548 2.90234ZM1.25001 5.42034C1.25001 3.94134 2.63401 2.91034 4.02401 3.18734L4.58501 3.29334C4.93101 3.35468 5.26101 3.40701 5.57501 3.45034C5.32453 4.45871 4.77937 5.36962 4.00908 6.06689C3.23878 6.76416 2.27826 7.2162 1.25001 7.36534V5.42034ZM16.001 18.7503C16.911 18.7503 17.723 18.8063 18.439 18.8953L19.122 18.9933L19.197 19.0093C19.3759 19.0584 19.5302 19.1719 19.6303 19.328C19.7303 19.4842 19.769 19.6719 19.7388 19.8548C19.7086 20.0378 19.6117 20.2031 19.4667 20.3188C19.3218 20.4345 19.1391 20.4924 18.954 20.4813L18.878 20.4733L18.255 20.3833C17.5069 20.2918 16.7537 20.2474 16 20.2503C13.946 20.2503 12.643 20.6403 11.041 20.9473C9.42501 21.2573 7.65401 21.4393 4.86701 20.9413C4.77003 20.924 4.67741 20.8877 4.59444 20.8346C4.51148 20.7815 4.43979 20.7125 4.38347 20.6317C4.26973 20.4685 4.2255 20.2667 4.26051 20.0708C4.27784 19.9739 4.31411 19.8812 4.36724 19.7983C4.42037 19.7153 4.48931 19.6436 4.57015 19.5873C4.7334 19.4736 4.93515 19.4293 5.13101 19.4643C7.70701 19.9243 9.28901 19.7543 10.759 19.4743C12.242 19.1903 13.76 18.7503 16.001 18.7503Z" fill="#141414"/>
</svg>
