<svg width="960" height="560" viewBox="0 0 960 560" fill="none" xmlns="http://www.w3.org/2000/svg">
  <rect width="960" height="560" fill="#D8D8D8"/>
  <rect width="960" height="560" fill="url(#paint0_linear_100_1)"/>
  <g opacity="0.84">
    <path d="M0 182H960V560H0V182Z" fill="url(#paint1_linear_100_1)"/>
    <path d="M62 171H220V430H62V171Z" fill="#8A8A8A"/>
    <path d="M188 126H487V408H188V126Z" fill="#B7B7B7"/>
    <path d="M222 104H604V424H222V104Z" fill="#9D9D9D"/>
    <path d="M242 129H569V390H242V129Z" fill="#6E6E6E"/>
    <path d="M605 152H720V394H605V152Z" fill="#B2B2B2"/>
    <path d="M689 118H870V430H689V118Z" fill="#D0D0D0"/>
    <path d="M273 161H312V340H273V161Z" fill="#D9D9D9"/>
    <path d="M340 161H379V340H340V161Z" fill="#8D8D8D"/>
    <path d="M407 161H446V340H407V161Z" fill="#C9C9C9"/>
    <path d="M474 161H513V340H474V161Z" fill="#999999"/>
    <path d="M319 161H336V340H319V161Z" fill="#F0F0F0"/>
    <path d="M386 161H403V340H386V161Z" fill="#ECECEC"/>
    <path d="M453 161H470V340H453V161Z" fill="#ECECEC"/>
    <path d="M520 161H537V340H520V161Z" fill="#ECECEC"/>
    <path d="M187 355H606L646 430H145L187 355Z" fill="#555555"/>
    <path d="M0 456H960V560H0V456Z" fill="url(#paint2_linear_100_1)"/>
    <path d="M163 389L224 425H125L163 389Z" fill="#8A8A8A"/>
    <path d="M238 389L299 425H200L238 389Z" fill="#8A8A8A"/>
    <path d="M313 389L374 425H275L313 389Z" fill="#8A8A8A"/>
    <path d="M388 389L449 425H350L388 389Z" fill="#8A8A8A"/>
    <path d="M463 389L524 425H425L463 389Z" fill="#8A8A8A"/>
    <path d="M538 389L599 425H500L538 389Z" fill="#8A8A8A"/>
  </g>
  <path d="M0 0H960V560H0V0Z" fill="url(#paint3_linear_100_1)"/>
  <defs>
    <linearGradient id="paint0_linear_100_1" x1="480" y1="0" x2="480" y2="560" gradientUnits="userSpaceOnUse">
      <stop stop-color="#EFEFEF"/>
      <stop offset="0.62" stop-color="#C3C3C3"/>
      <stop offset="1" stop-color="#838383"/>
    </linearGradient>
    <linearGradient id="paint1_linear_100_1" x1="480" y1="182" x2="480" y2="560" gradientUnits="userSpaceOnUse">
      <stop stop-color="#D7D7D7"/>
      <stop offset="1" stop-color="#7B7B7B"/>
    </linearGradient>
    <linearGradient id="paint2_linear_100_1" x1="480" y1="456" x2="480" y2="560" gradientUnits="userSpaceOnUse">
      <stop stop-color="#5B5B5B"/>
      <stop offset="1" stop-color="#2A2A2A"/>
    </linearGradient>
    <linearGradient id="paint3_linear_100_1" x1="480" y1="329" x2="480" y2="560" gradientUnits="userSpaceOnUse">
      <stop stop-color="rgba(0,0,0,0)"/>
      <stop offset="1" stop-color="rgba(0,0,0,0.48)"/>
    </linearGradient>
  </defs>
</svg>
