<svg width="175" height="42" viewBox="0 0 175 42" fill="none" xmlns="http://www.w3.org/2000/svg">
<path d="M173.119 25.8242C173.119 25.448 173.045 25.0756 172.9 24.7281C172.756 24.3806 172.544 24.0648 172.277 23.7989C172.01 23.5329 171.693 23.3219 171.345 23.178C170.996 23.0341 170.622 22.9601 170.245 22.9601H167.371V25.8242C167.371 26.5837 167.674 27.3121 168.213 27.8492C168.752 28.3863 169.483 28.688 170.245 28.688C171.007 28.688 171.738 28.3863 172.277 27.8492C172.816 27.3121 173.119 26.5837 173.119 25.8242Z" fill="white"/>
<path d="M3.13363 1.75317H15.3681C18.6284 1.75317 21.7552 3.04379 24.0606 5.3411C26.366 7.63841 27.6612 10.7542 27.6612 14.0031C27.6612 17.252 26.366 20.3678 24.0606 22.6651C21.7552 24.9625 18.6284 26.2531 15.3681 26.2531H1.9043V2.9782C1.9043 2.6533 2.03382 2.34171 2.26436 2.11197C2.49491 1.88224 2.80759 1.75317 3.13363 1.75317Z" fill="#FFAE9B"/>
<path d="M1.9043 35.0012C1.9043 33.6088 2.45941 32.2733 3.4475 31.2887C4.4356 30.304 5.77575 29.7509 7.17314 29.7509H12.442V35.0012C12.442 36.3937 11.8869 37.7292 10.8988 38.7138C9.91067 39.6984 8.57052 40.2516 7.17314 40.2516C5.77575 40.2516 4.4356 39.6984 3.4475 38.7138C2.45941 37.7292 1.9043 36.3937 1.9043 35.0012Z" fill="#FFAE9B"/>
<path d="M46.413 27.829C47.5784 28.4569 48.72 28.7635 50.7288 28.7635C56.0017 28.7635 60.3549 24.3439 60.3549 19.0471C60.3659 17.7407 60.1157 16.4452 59.6191 15.2362C59.1224 14.0271 58.3892 12.9287 57.4622 12.0049C56.5352 11.0811 55.4329 10.3504 54.2196 9.85549C53.0063 9.36057 51.7062 9.11128 50.3953 9.12217C49.0224 9.11181 47.6631 9.39276 46.4076 9.94634C45.1521 10.4999 44.0292 11.3134 43.1136 12.3328C41.3555 14.2515 40.5186 16.586 40.5186 19.7144V34.1059H43.8664V20.3817C43.8664 18.0046 44.2841 16.3783 45.1638 15.1273C45.7672 14.2815 46.5638 13.5908 47.4879 13.1123C48.412 12.6337 49.437 12.3809 50.4784 12.3748C54.0355 12.3748 56.8812 15.294 56.8812 18.922C56.8812 22.6335 54.0769 25.5108 50.4372 25.5108C48.554 25.5108 46.4044 24.1524 46.4136 24.1401L46.413 27.829Z" fill="white"/>
<path d="M44.2125 35.5387H40.168V19.7106C40.168 16.5156 41.021 14.0961 42.8529 12.0963C43.8009 11.0407 44.9635 10.1981 46.2635 9.62485C47.5634 9.05155 48.971 8.7606 50.3925 8.77133C51.7493 8.7604 53.0947 9.01863 54.3503 9.53098C55.6059 10.0433 56.7466 10.7996 57.7061 11.7556C58.6655 12.7116 59.4243 13.8484 59.9385 15.0996C60.4527 16.3508 60.7118 17.6915 60.7008 19.0435C60.7019 20.3789 60.4333 21.7009 59.9111 22.9307C59.4067 24.1239 58.6784 25.2102 57.7653 26.1313C56.8586 27.0525 55.7819 27.7905 54.5944 28.3048C53.3746 28.8348 52.058 29.1079 50.7273 29.1069C49.8702 29.1229 49.014 29.0423 48.1751 28.8665C47.5006 28.7119 46.8509 28.4643 46.245 28.1308L46.0622 28.0317V23.5582L46.7583 23.9494C47.2792 24.264 48.9858 25.1602 50.4335 25.1602C51.2408 25.1671 52.0412 25.0114 52.7867 24.7026C53.5321 24.3937 54.2073 23.9379 54.7716 23.3626C55.9191 22.1679 56.5505 20.5722 56.53 18.9186C56.5406 17.2803 55.9055 15.7032 54.7613 14.5267C54.2061 13.9533 53.5403 13.4975 52.804 13.1867C52.0677 12.876 51.2759 12.7166 50.4763 12.7183C49.5031 12.7157 48.5439 12.9491 47.6815 13.3984C46.7973 13.8615 46.0319 14.521 45.4444 15.326C45.0093 15.9582 44.6963 16.6657 44.5214 17.4122C44.2984 18.3844 44.1947 19.3801 44.2125 20.3773V35.5387ZM40.8647 33.755H43.5158V20.3773C43.4977 19.3234 43.6083 18.2713 43.8452 17.2441C44.0407 16.4134 44.3903 15.6264 44.876 14.9237L44.8812 14.9166C45.5319 14.025 46.38 13.2948 47.3597 12.7827C48.6374 12.1177 50.0963 11.8811 51.5197 12.108C52.9431 12.3349 54.2551 13.0132 55.2609 14.0422C56.5319 15.3479 57.2379 17.0985 57.2271 18.9176C57.248 20.7523 56.5458 22.5219 55.2712 23.846C54.6422 24.488 53.8895 24.9967 53.0583 25.3417C52.2271 25.6867 51.3345 25.8608 50.4341 25.8536C49.8633 25.8536 48.9053 25.7311 47.5817 25.1475C47.2507 25.0016 46.9681 24.8579 46.7589 24.7452V27.6151C47.7279 28.1106 48.7738 28.4121 50.7271 28.4121C51.9623 28.4129 53.1845 28.1593 54.3168 27.6673C55.4224 27.1886 56.4248 26.5016 57.269 25.6441C58.1201 24.7856 58.799 23.7731 59.269 22.661C59.7554 21.5166 60.0056 20.2863 60.0049 19.0435C60.0159 17.7826 59.7747 16.5321 59.2955 15.3651C58.8163 14.1981 58.1087 13.1378 57.2139 12.2463C56.3191 11.3547 55.2551 10.6496 54.0839 10.1722C52.9127 9.69477 51.6579 9.45456 50.3925 9.46558C49.0685 9.45541 47.7575 9.72624 46.5466 10.2601C45.3358 10.7939 44.2528 11.5785 43.3698 12.5617L43.3683 12.5635C41.6602 14.4276 40.8647 16.6987 40.8647 19.7106V33.755Z" fill="white"/>
<path d="M77.1751 24.1378C76.7598 24.4111 75.1196 25.4688 73.1946 25.4688C71.4748 25.4562 69.8304 24.7642 68.6221 23.5446C67.4139 22.3251 66.7406 20.6776 66.75 18.9639C66.75 15.3358 69.6377 12.3751 73.194 12.3751C77.2115 12.3751 79.7222 15.3358 79.7222 20.1316V28.3886H83.0701V19.4637C83.0701 13.542 78.8433 9.12183 73.2357 9.12183C67.7536 9.12183 63.2759 13.5414 63.2759 18.9635C63.2759 24.4264 67.8373 28.7061 73.194 28.7061C75.6253 28.6775 77.1729 27.9155 77.1745 27.8118L77.1751 24.1378Z" fill="white"/>
<path d="M73.201 29.05H73.199C70.5056 29.0482 67.9191 28.0004 65.9883 26.1291C65.0421 25.2167 64.2844 24.1285 63.758 22.9258C63.2107 21.675 62.9297 20.3247 62.9326 18.9602C62.9306 17.5984 63.2074 16.2504 63.7461 14.9988C64.5441 13.1493 65.869 11.5736 67.5566 10.4668C69.2441 9.35992 71.2204 8.77052 73.2407 8.77152C74.5986 8.75762 75.9448 9.02194 77.1958 9.54806C78.4469 10.0742 79.5761 10.8509 80.5134 11.83C82.3899 13.8002 83.4233 16.51 83.4233 19.4602V28.7315H79.379V20.1279C79.379 17.8603 78.7994 15.9747 77.703 14.6746C76.6236 13.3949 75.0661 12.7184 73.199 12.7184C69.8378 12.7184 67.1027 15.5185 67.1027 18.9602C67.0935 20.5819 67.7302 22.1409 68.8731 23.2954C70.0159 24.4499 71.5716 25.1055 73.199 25.1185C74.3937 25.1185 75.7392 24.6663 76.9876 23.845L77.5277 23.4896V27.8143C77.5238 28.0577 77.309 28.1792 77.0476 28.3018C76.7735 28.4274 76.4903 28.5325 76.2006 28.6164C75.2264 28.8987 74.2175 29.0447 73.203 29.05H73.201ZM73.2407 9.46577C71.3569 9.46575 69.5143 10.0157 67.9407 11.0477C66.3671 12.0797 65.1314 13.5486 64.3863 15.2727C63.8852 16.4378 63.6278 17.6926 63.6299 18.9602C63.6271 20.2293 63.8885 21.4852 64.3974 22.6485C64.8875 23.7684 65.593 24.7817 66.474 25.6313C68.274 27.3759 70.6853 28.3532 73.1964 28.3558C74.0822 28.3496 74.9637 28.2311 75.8195 28.0032C76.1682 27.9144 76.5069 27.7908 76.8306 27.6341V24.7564C76.5268 24.9294 76.2132 25.0848 75.8915 25.222C74.8555 25.6871 73.7181 25.8831 72.5854 25.7917C71.4528 25.7002 70.3619 25.3243 69.4146 24.699C68.4672 24.0737 67.6943 23.2194 67.1679 22.2159C66.6416 21.2123 66.379 20.0923 66.4046 18.9602C66.4046 15.1352 69.4519 12.0236 73.1976 12.0236C75.2771 12.0236 77.019 12.7856 78.235 14.2273C79.4382 15.6542 80.0743 17.6942 80.0743 20.1271V28.0369H82.7254V19.4606C82.7254 16.6888 81.76 14.1492 80.0069 12.308C79.1346 11.3977 78.0839 10.6757 76.92 10.1868C75.7561 9.69783 74.5038 9.45243 73.2407 9.46577Z" fill="white"/>
<path d="M119.204 24.1378C118.789 24.4111 117.149 25.4688 115.224 25.4688C113.504 25.4562 111.86 24.7642 110.651 23.5446C109.443 22.3251 108.77 20.6776 108.779 18.9639C108.779 15.3358 111.667 12.3751 115.223 12.3751C119.241 12.3751 121.752 15.3358 121.752 20.1316V28.3886H125.099V19.4637C125.099 13.542 120.873 9.12183 115.265 9.12183C109.783 9.12183 105.305 13.5414 105.305 18.9635C105.305 24.4264 109.867 28.7061 115.223 28.7061C117.655 28.6775 119.202 27.9155 119.204 27.8118L119.204 24.1378Z" fill="white"/>
<path d="M115.23 29.05H115.228C112.535 29.0482 109.948 28.0004 108.018 26.1291C107.071 25.2167 106.314 24.1285 105.787 22.9258C105.24 21.675 104.959 20.3247 104.962 18.9602C104.96 17.5984 105.237 16.2504 105.775 14.9988C106.573 13.1493 107.898 11.5736 109.586 10.4668C111.273 9.35992 113.25 8.77052 115.27 8.77152C116.628 8.75762 117.974 9.02194 119.225 9.54806C120.476 10.0742 121.605 10.8509 122.543 11.83C124.419 13.8002 125.453 16.51 125.453 19.4602V28.7315H121.408V20.1279C121.408 17.8603 120.829 15.9747 119.732 14.6746C118.653 13.3949 117.095 12.7184 115.228 12.7184C111.867 12.7184 109.132 15.5185 109.132 18.9602C109.123 20.5819 109.76 22.1409 110.902 23.2954C112.045 24.4499 113.601 25.1055 115.228 25.1185C116.423 25.1185 117.768 24.6663 119.017 23.845L119.557 23.4896V27.8143C119.553 28.0577 119.338 28.1792 119.077 28.3018C118.803 28.4274 118.52 28.5325 118.23 28.6164C117.256 28.8987 116.247 29.0447 115.232 29.05H115.23ZM115.27 9.46577C113.386 9.46575 111.544 10.0157 109.97 11.0477C108.396 12.0797 107.161 13.5486 106.416 15.2727C105.914 16.4378 105.657 17.6926 105.659 18.9602C105.656 20.2293 105.918 21.4852 106.427 22.6485C106.917 23.7684 107.622 24.7817 108.503 25.6313C110.303 27.3759 112.715 28.3532 115.226 28.3558C116.112 28.3496 116.993 28.2311 117.849 28.0032C118.197 27.9144 118.536 27.7908 118.86 27.6341V24.7564C118.556 24.9294 118.243 25.0848 117.921 25.222C116.885 25.6871 115.747 25.8831 114.615 25.7917C113.482 25.7002 112.391 25.3243 111.444 24.699C110.497 24.0737 109.724 23.2194 109.197 22.2159C108.671 21.2123 108.408 20.0923 108.434 18.9602C108.434 15.1352 111.481 12.0236 115.227 12.0236C117.306 12.0236 119.048 12.7856 120.264 14.2273C121.468 15.6542 122.104 17.6942 122.104 20.1271V28.0369H124.755V19.4606C124.755 16.6888 123.789 14.1492 122.036 12.308C121.164 11.3977 120.113 10.6757 118.949 10.1868C117.785 9.69783 116.533 9.45243 115.27 9.46577Z" fill="white"/>
<path d="M158.852 24.1378C158.437 24.4111 156.797 25.4688 154.872 25.4688C153.152 25.4562 151.508 24.7642 150.299 23.5446C149.091 22.3251 148.418 20.6776 148.427 18.9639C148.427 15.3358 151.315 12.3751 154.871 12.3751C158.889 12.3751 161.399 15.3358 161.399 20.1316V28.3886H164.747V19.4637C164.747 13.542 160.521 9.12183 154.913 9.12183C149.431 9.12183 144.953 13.5414 144.953 18.9635C144.953 24.4264 149.515 28.7061 154.871 28.7061C157.303 28.6775 158.85 27.9155 158.852 27.8118L158.852 24.1378Z" fill="white"/>
<path d="M154.871 29.05H154.869C152.176 29.0482 149.589 28.0004 147.658 26.1291C146.712 25.2167 145.954 24.1285 145.428 22.9258C144.881 21.675 144.6 20.3247 144.603 18.9602C144.6 17.5984 144.877 16.2504 145.416 14.9988C146.214 13.1493 147.539 11.5736 149.226 10.4668C150.914 9.35992 152.89 8.77052 154.911 8.77152C156.268 8.75762 157.615 9.02194 158.866 9.54806C160.117 10.0742 161.246 10.8509 162.183 11.83C164.06 13.8002 165.093 16.51 165.093 19.4602V28.7315H161.049V20.1279C161.049 17.8603 160.469 15.9747 159.373 14.6746C158.294 13.3949 156.736 12.7184 154.869 12.7184C151.508 12.7184 148.773 15.5185 148.773 18.9602C148.763 20.5819 149.4 22.1409 150.543 23.2954C151.686 24.4499 153.242 25.1055 154.869 25.1185C156.064 25.1185 157.409 24.6663 158.657 23.845L159.198 23.4896V27.8143C159.194 28.0577 158.979 28.1792 158.718 28.3018C158.443 28.4274 158.16 28.5325 157.87 28.6164C156.896 28.8987 155.887 29.0447 154.873 29.05H154.871ZM154.911 9.46577C153.027 9.46575 151.184 10.0157 149.611 11.0477C148.037 12.0797 146.801 13.5486 146.056 15.2727C145.555 16.4378 145.298 17.6926 145.3 18.9602C145.297 20.2293 145.558 21.4852 146.067 22.6485C146.557 23.7684 147.263 24.7817 148.144 25.6313C149.944 27.3759 152.355 28.3532 154.866 28.3558C155.752 28.3496 156.634 28.2311 157.489 28.0032C157.838 27.9144 158.177 27.7908 158.501 27.6341V24.7564C158.197 24.9294 157.883 25.0848 157.561 25.222C156.525 25.6871 155.388 25.8831 154.255 25.7917C153.123 25.7002 152.032 25.3243 151.084 24.699C150.137 24.0737 149.364 23.2194 148.838 22.2159C148.312 21.2123 148.049 20.0923 148.075 18.9602C148.075 15.1352 151.122 12.0236 154.868 12.0236C156.947 12.0236 158.689 12.7856 159.905 14.2273C161.108 15.6542 161.744 17.6942 161.744 20.1271V28.0369H164.395V19.4606C164.395 16.6888 163.43 14.1492 161.677 12.308C160.804 11.3977 159.754 10.6757 158.59 10.1868C157.426 9.69783 156.174 9.45243 154.911 9.46577Z" fill="white"/>
<path d="M86.0178 28.388H89.3656V18.6716C89.3656 16.6699 89.6166 15.4609 90.2445 14.5015C90.6718 13.8401 91.2609 13.2979 91.9563 12.9259C92.6518 12.5538 93.4308 12.3641 94.2201 12.3747C94.9396 12.3801 95.6486 12.548 96.2937 12.8658C96.9388 13.1835 97.5031 13.6429 97.9444 14.2093C98.74 15.2518 99.0325 16.3777 99.0325 18.4629V28.3878H102.38V17.6707C102.38 12.5414 99.1163 9.12183 94.2199 9.12183C89.2817 9.12183 86.0176 12.583 86.0176 17.7541L86.0178 28.388Z" fill="white"/>
<path d="M102.727 28.7319H98.6822V18.4597C98.6822 16.46 98.4163 15.4019 97.6663 14.4179C97.2577 13.8935 96.7351 13.4682 96.1379 13.1738C95.5407 12.8795 94.8843 12.7239 94.218 12.7186C93.4786 12.7168 92.75 12.8961 92.0963 13.2406C91.4595 13.5774 90.9222 14.0744 90.5378 14.6822L90.5343 14.6878C89.9503 15.5796 89.7121 16.7333 89.7121 18.6684V28.7321H85.6675V17.7508C85.6554 16.5085 85.8613 15.2737 86.2757 14.1019C86.6522 13.0448 87.2433 12.0764 88.0122 11.2571C88.7721 10.4569 89.6965 9.82972 90.7222 9.41854C91.8344 8.97935 93.0217 8.75959 94.218 8.77145C99.3073 8.77145 102.727 12.3464 102.727 17.6674V28.7319ZM99.3789 28.0382H102.03V17.6674C102.042 16.5163 101.851 15.3721 101.465 14.2871C101.121 13.3282 100.582 12.4504 99.8819 11.7088C99.1926 10.9884 98.3557 10.4243 97.4281 10.0549C95.3524 9.267 93.0581 9.26947 90.9841 10.0619C90.0508 10.4357 89.2095 11.0061 88.5179 11.734C87.8146 12.4843 87.2739 13.3711 86.9298 14.339C86.5432 15.4347 86.3516 16.5893 86.3636 17.7508V28.0368H89.0148V18.6682C89.0148 16.5886 89.2852 15.326 89.9483 14.3112C90.3971 13.6018 91.0242 13.0215 91.7673 12.628C92.5221 12.2298 93.3634 12.0224 94.2174 12.0241C94.99 12.0297 95.7513 12.2098 96.444 12.5508C97.1368 12.8918 97.7429 13.3849 98.2168 13.9929L98.2192 13.9961C99.0641 15.104 99.3783 16.3137 99.3783 18.4597L99.3789 28.0382Z" fill="white"/>
<path d="M127.96 28.3133H136.832C139.05 28.3133 140.432 27.9798 141.477 27.1044C142.004 26.657 142.426 26.1008 142.715 25.4742C143.005 24.8477 143.153 24.1659 143.151 23.4763C143.151 21.0992 141.979 19.7648 138.966 18.7224L132.312 16.3867C131.057 15.9279 130.555 15.3858 130.555 14.4268C130.555 13.009 131.475 12.3835 133.651 12.3835H141.727V9.46416H134.153C129.55 9.46416 127.207 11.0905 127.207 14.3432C127.207 16.5534 128.378 17.9712 130.889 18.847L137.962 21.3077C139.175 21.7239 139.678 22.3086 139.678 23.3094C139.678 24.1434 139.301 24.7689 138.631 25.1027C138.255 25.2695 138.255 25.3946 135.409 25.3946H127.96V28.3133Z" fill="white"/>
<path d="M136.829 28.6594H127.609V25.0461H135.406C137.932 25.0461 138.144 24.9456 138.39 24.8293C138.416 24.8166 138.447 24.8023 138.48 24.7874C139.034 24.5084 139.327 23.9971 139.327 23.308C139.348 22.9485 139.235 22.5939 139.008 22.3136C138.686 21.9902 138.286 21.756 137.846 21.6342L130.772 19.1737C129.439 18.7092 128.479 18.1009 127.834 17.3141C127.175 16.5111 126.855 15.5389 126.855 14.3413C126.855 12.6054 127.493 11.2785 128.751 10.3973C129.446 9.9323 130.224 9.60353 131.043 9.42858C132.064 9.20639 133.106 9.101 134.151 9.11446H142.073V12.7294H133.648C132.625 12.7294 131.915 12.8707 131.477 13.1611C131.083 13.4227 130.9 13.8246 130.9 14.4257C130.9 15.1065 131.15 15.5919 132.428 16.059L139.079 18.3935C140.678 18.9468 141.749 19.5745 142.448 20.3686C143.164 21.1812 143.497 22.169 143.497 23.4748C143.496 24.2217 143.333 24.9595 143.019 25.6379C142.71 26.3185 142.248 26.9192 141.669 27.3935C141.089 27.8677 140.408 28.2028 139.678 28.3729C138.744 28.5869 137.787 28.6831 136.829 28.6594ZM128.306 27.9658H136.829C139.012 27.9658 140.293 27.639 141.25 26.8377C141.734 26.4295 142.122 25.9207 142.387 25.3471C142.658 24.7601 142.799 24.1216 142.8 23.4754C142.8 22.3479 142.521 21.5062 141.924 20.8268C141.307 20.1268 140.331 19.562 138.849 19.0493L132.189 16.7116C131.489 16.4556 131.016 16.1739 130.701 15.8255C130.361 15.44 130.182 14.9387 130.204 14.4257C130.194 14.0601 130.266 13.6968 130.414 13.362C130.562 13.0448 130.796 12.7752 131.09 12.5836C131.653 12.2096 132.466 12.0352 133.648 12.0352H141.376V9.8103H134.151C131.929 9.8103 130.247 10.1995 129.151 10.9669C128.638 11.3187 128.226 11.7979 127.956 12.357C127.675 12.9805 127.537 13.6588 127.552 14.3423C127.552 15.3729 127.821 16.2009 128.373 16.8749C128.935 17.5599 129.794 18.0974 131.002 18.5183L138.074 20.9794C138.756 21.2135 139.221 21.4947 139.537 21.8636C139.873 22.2688 140.046 22.7833 140.024 23.3082C140.024 24.2668 139.584 25.0138 138.785 25.4117L138.77 25.4185C138.743 25.4308 138.716 25.4432 138.689 25.4563C138.328 25.6274 138.089 25.7403 135.407 25.7403H128.307L128.306 27.9658Z" fill="white"/>
</svg>
