<svg width="64" height="64" viewBox="0 0 64 64" fill="none" xmlns="http://www.w3.org/2000/svg">
<path opacity="0.4" d="M9.10392 41.0631C7.37821 40.2588 5.91795 38.9786 4.8948 37.373C3.87165 35.7674 3.32813 33.903 3.32812 31.9991C3.32813 30.0952 3.87165 28.2308 4.8948 26.6252C5.91795 25.0195 7.37821 23.7393 9.10392 22.9351C8.68976 21.5856 8.56589 20.1638 8.74046 18.7631C8.91503 17.3624 9.38409 16.0145 10.1168 14.808C10.8495 13.6015 11.8293 12.5638 12.9917 11.763C14.1541 10.9622 15.4729 10.4165 16.8613 10.1617C17.3176 8.0742 18.5288 6.22873 20.2625 4.97953C21.9961 3.73032 24.13 3.16539 26.2547 3.39316C28.3794 3.62093 30.345 4.62536 31.7745 6.21366C33.204 7.80197 33.9965 9.86224 33.9999 11.9991V51.9991C34.0033 54.1398 33.2142 56.2059 31.7848 57.7995C30.3554 59.393 28.3869 60.4012 26.2584 60.6297C24.1299 60.8582 21.9922 60.2909 20.2571 59.0371C18.5221 57.7833 17.3124 55.9317 16.8613 53.8391C15.4724 53.5848 14.1531 53.0393 12.9902 52.2384C11.8273 51.4375 10.8472 50.3995 10.1144 49.1926C9.38158 47.9857 8.91266 46.6372 8.7385 45.236C8.56433 43.8349 8.68887 42.4127 9.10392 41.0631Z" fill="#063622"/>
<path fill-rule="evenodd" clip-rule="evenodd" d="M47.3333 12.6671C47.3335 11.8313 47.5955 11.0165 48.0825 10.3372C48.5696 9.65796 49.2571 9.14831 50.0487 8.87987C50.8402 8.61144 51.696 8.5977 52.4957 8.84059C53.2955 9.08349 53.9991 9.57081 54.5077 10.2341C55.0162 10.8974 55.3042 11.7033 55.3312 12.5387C55.3582 13.3741 55.1229 14.197 54.6582 14.8918C54.1935 15.5865 53.5229 16.1183 52.7405 16.4123C51.9581 16.7063 51.1032 16.7479 50.296 16.5311L46.7493 20.0805C46.5635 20.2665 46.3427 20.4141 46.0998 20.5148C45.8568 20.6155 45.5963 20.6672 45.3333 20.6671H40C39.4696 20.6671 38.9609 20.4564 38.5858 20.0813C38.2107 19.7063 38 19.1976 38 18.6671C38 18.1367 38.2107 17.628 38.5858 17.2529C38.9609 16.8778 39.4696 16.6671 40 16.6671H44.5067L47.4667 13.7018C47.3772 13.3642 47.3324 13.0164 47.3333 12.6671ZM38 45.3338C38 44.8034 38.2107 44.2946 38.5858 43.9196C38.9609 43.5445 39.4696 43.3338 40 43.3338H45.3333C45.8636 43.3343 46.372 43.5453 46.7467 43.9205L50.296 47.4671C50.8889 47.3096 51.5101 47.2902 52.1117 47.4106C52.7132 47.5309 53.2792 47.7878 53.7658 48.1613C54.2525 48.5349 54.6469 49.0152 54.9186 49.5652C55.1904 50.1152 55.3323 50.7203 55.3333 51.3338C55.3314 51.9021 55.2085 52.4635 54.9726 52.9806C54.7367 53.4977 54.3934 53.9586 53.9654 54.3325C53.5375 54.7065 53.0347 54.985 52.4907 55.1494C51.9467 55.3139 51.3739 55.3605 50.8104 55.2862C50.247 55.2119 49.7058 55.0184 49.223 54.7185C48.7402 54.4187 48.3269 54.0194 48.0105 53.5473C47.6941 53.0752 47.4819 52.541 47.3882 51.9805C47.2944 51.4199 47.3212 50.8458 47.4667 50.2965L44.5067 47.3338H40C39.4696 47.3338 38.9609 47.1231 38.5858 46.748C38.2107 46.3729 38 45.8642 38 45.3338ZM47.8667 30.0005C48.3069 29.2379 48.9865 28.6419 49.8 28.3049C50.6135 27.968 51.5155 27.9089 52.366 28.1368C53.2166 28.3647 53.9681 28.8668 54.5042 29.5654C55.0402 30.264 55.3308 31.1199 55.3308 32.0005C55.3308 32.881 55.0402 33.7369 54.5042 34.4355C53.9681 35.1341 53.2166 35.6363 52.366 35.8642C51.5155 36.0921 50.6135 36.0329 49.8 35.696C48.9865 35.359 48.3069 34.763 47.8667 34.0005H40C39.4696 34.0005 38.9609 33.7897 38.5858 33.4147C38.2107 33.0396 38 32.5309 38 32.0005C38 31.47 38.2107 30.9613 38.5858 30.5862C38.9609 30.2112 39.4696 30.0005 40 30.0005H47.8667Z" fill="#063622"/>
</svg>
