<svg width="64" height="64" viewBox="0 0 64 64" fill="none" xmlns="http://www.w3.org/2000/svg">
<path opacity="0.4" d="M30.7517 6C31.9251 6 32.9384 6 33.7651 6.07467C34.6451 6.15467 35.5144 6.33067 36.3331 6.80267C37.2451 7.33067 38.0024 8.088 38.5304 9C39.0024 9.81867 39.1784 10.688 39.2584 11.5653C39.3331 12.3973 39.3331 13.408 39.3331 14.5787V14.752C39.3331 15.9253 39.3331 16.9387 39.2584 17.7653C39.1784 18.6453 39.0024 19.5147 38.5304 20.3333C38.0036 21.246 37.2458 22.0039 36.3331 22.5307C35.5144 23.0027 34.6451 23.1787 33.7677 23.2587C32.9357 23.3333 31.9251 23.3333 30.7544 23.3333H22.5784C21.4051 23.3333 20.3917 23.3333 19.5651 23.2587C18.6851 23.1787 17.8157 23.0027 16.9971 22.5307C16.0844 22.0039 15.3265 21.246 14.7997 20.3333C14.3277 19.5147 14.1517 18.6453 14.0717 17.768C13.9971 16.936 13.9971 15.9253 13.9971 14.7547V14.5813C13.9971 13.408 13.9971 12.3947 14.0717 11.568C14.1517 10.688 14.3277 9.81867 14.7997 9C15.3265 8.0873 16.0844 7.32944 16.9971 6.80267C17.8157 6.33067 18.6851 6.15467 19.5624 6.07467C20.3944 6 21.4051 6 22.5757 6H30.7517ZM30.7517 32.6667C31.9251 32.6667 32.9384 32.6667 33.7651 32.7413C34.6451 32.8213 35.5144 32.9973 36.3331 33.4693C37.2451 33.9973 38.0024 34.7547 38.5304 35.6667C39.0024 36.4853 39.1784 37.3547 39.2584 38.232C39.3331 39.064 39.3331 40.0747 39.3331 41.2453V41.4187C39.3331 42.592 39.3331 43.6053 39.2584 44.432C39.1784 45.312 39.0024 46.1813 38.5304 47C38.0036 47.9127 37.2458 48.6706 36.3331 49.1973C35.5144 49.6693 34.6451 49.8453 33.7677 49.9253C32.9357 50 31.9251 50 30.7544 50H22.5784C21.4051 50 20.3917 50 19.5651 49.9253C18.6851 49.8453 17.8157 49.6693 16.9971 49.1973C16.0844 48.6706 15.3265 47.9127 14.7997 47C14.3277 46.1813 14.1517 45.312 14.0717 44.4347C13.9971 43.6027 13.9971 42.592 13.9971 41.4213V41.248C13.9971 40.0747 13.9971 39.0613 14.0717 38.2347C14.1517 37.3547 14.3277 36.4853 14.7997 35.6667C15.3265 34.754 16.0844 33.9961 16.9971 33.4693C17.8157 32.9973 18.6851 32.8213 19.5624 32.7413C20.3944 32.6667 21.4051 32.6667 22.5757 32.6667H30.7517ZM47.5597 32.5173C48.4131 31.864 49.4131 31.3333 50.6664 31.3333C51.9197 31.3333 52.9197 31.8667 53.7757 32.5173C54.5571 33.1147 55.4131 33.968 56.3677 34.9253L57.0744 35.632C58.0317 36.5867 58.8851 37.4427 59.4824 38.2267C60.1331 39.08 60.6664 40.08 60.6664 41.3333C60.6664 42.5867 60.1331 43.5867 59.4824 44.4427C58.8851 45.224 58.0317 46.08 57.0744 47.0347L56.3677 47.7413C55.4131 48.6987 54.5571 49.552 53.7731 50.1493C52.9197 50.8 51.9197 51.3333 50.6664 51.3333C49.4131 51.3333 48.4131 50.8 47.5597 50.1493C46.7757 49.552 45.9197 48.6987 44.9651 47.7413L44.2584 47.0347C43.3011 46.08 42.4477 45.224 41.8504 44.44C41.1971 43.5867 40.6664 42.5867 40.6664 41.3333C40.6664 40.08 41.1997 39.08 41.8504 38.2267C42.4477 37.4427 43.3011 36.5867 44.2584 35.632L44.9651 34.9253C45.9197 33.9707 46.7757 33.1147 47.5597 32.5173Z" fill="#063622"/>
<path d="M8.02122 5.33329C8.02122 4.62605 7.74027 3.94777 7.24017 3.44767C6.74008 2.94758 6.0618 2.66663 5.35455 2.66663C4.64731 2.66663 3.96903 2.94758 3.46894 3.44767C2.96884 3.94777 2.68789 4.62605 2.68789 5.33329V32C2.68789 32.2471 2.68433 32.5217 2.67722 32.824C2.65855 34.032 2.63189 35.6186 2.86656 37.0533C3.18122 38.9893 4.02389 41.168 6.23989 42.6533C7.42389 43.4426 8.71989 43.7413 10.0346 43.8746C11.1519 43.9866 12.4959 44 14.0426 44C14.0052 43.1401 13.991 42.2793 13.9999 41.4186V41.248C13.9999 40.272 13.9999 39.408 14.0426 38.6666C12.4719 38.6666 11.4026 38.6533 10.5759 38.568C9.67989 38.4773 9.36522 38.3253 9.20522 38.2186C8.65055 37.8453 8.30655 37.2826 8.13056 36.1973C7.98122 35.2773 7.99455 34.336 8.01055 33.2C8.01767 32.8266 8.02122 32.4266 8.02122 32V17.3333H14.0426C14.0052 16.4734 13.991 15.6126 13.9999 14.752V14.5813C13.9999 13.6053 13.9999 12.7413 14.0426 12H8.02122V5.33329ZM39.2906 17.3333C39.3332 16.592 39.3332 15.728 39.3332 14.752V14.5813C39.3332 13.6053 39.3332 12.7413 39.2879 12H40.1812C42.5439 12 44.5812 12 46.2079 12.2186C47.9572 12.4533 49.6319 12.984 50.9919 14.344C52.3519 15.704 52.8799 17.3786 53.1146 19.1253C53.3332 20.7573 53.3332 22.7946 53.3332 25.1573V32.2026C52.5786 31.7013 51.7092 31.3333 50.6666 31.3333C49.6212 31.3333 48.7546 31.7013 47.9999 32.2V25.3333C47.9999 22.744 47.9946 21.0693 47.8292 19.8373C47.6719 18.68 47.4212 18.3173 47.2186 18.1146C47.0159 17.912 46.6532 17.6613 45.4986 17.504C44.2666 17.3386 42.5919 17.3333 40.0052 17.3333H39.2906ZM41.5332 38.6666H39.2906C39.3332 39.408 39.3332 40.272 39.3332 41.248V41.4186C39.3332 42.3946 39.3332 43.2586 39.2879 44H41.5332C41.0346 43.2453 40.6666 42.3786 40.6666 41.3333C40.6666 40.288 41.0346 39.4213 41.5332 38.6666ZM48.0079 50.4693L47.9999 50.6666V51.9013C47.9999 52.888 47.9999 53.7786 48.0586 54.5226C48.1226 55.3226 48.2666 56.168 48.6719 57.0026C49.5546 58.832 51.1812 60.1626 53.0666 60.832C53.8959 61.1253 54.7359 61.2346 55.5919 61.2853C56.4159 61.3333 57.4132 61.3333 58.5919 61.3333H58.6666C59.3738 61.3333 60.0521 61.0523 60.5522 60.5522C61.0523 60.0522 61.3332 59.3739 61.3332 58.6666C61.3332 57.9594 61.0523 57.2811 60.5522 56.781C60.0521 56.2809 59.3738 56 58.6666 56C57.3919 56 56.5519 56 55.9039 55.96C55.2746 55.9253 55.0026 55.8586 54.8506 55.8053C54.1226 55.5466 53.6746 55.0986 53.4746 54.6853C53.4105 54.4963 53.3772 54.2982 53.3759 54.0986C53.3332 53.592 53.3332 52.9173 53.3332 51.8133V50.6666C53.3332 50.5991 53.3306 50.5333 53.3252 50.4693C52.5732 50.9653 51.7066 51.3333 50.6666 51.3333C49.6266 51.3333 48.7599 50.968 48.0079 50.4693Z" fill="#063622"/>
</svg>
