<svg width="64" height="64" viewBox="0 0 64 64" fill="none" xmlns="http://www.w3.org/2000/svg">
<path fill-rule="evenodd" clip-rule="evenodd" d="M49.3337 34.6666C50.0409 34.6666 50.7192 34.9476 51.2193 35.4477C51.7194 35.9478 52.0003 36.626 52.0003 37.3333V38.0533C53.5738 38.4583 55.0305 39.2264 56.2537 40.296L57.2083 39.672C57.5016 39.4804 57.8298 39.3485 58.174 39.2838C58.5183 39.219 58.8719 39.2227 59.2148 39.2947C59.5576 39.3666 59.8829 39.5053 60.1721 39.703C60.4613 39.9007 60.7088 40.1533 60.9003 40.4466C61.0919 40.7399 61.2238 41.0681 61.2885 41.4123C61.3533 41.7566 61.3496 42.1102 61.2776 42.4531C61.2057 42.7959 61.0669 43.1212 60.8693 43.4104C60.6716 43.6996 60.4189 43.9471 60.1257 44.1386L59.235 44.72C59.9624 46.8461 59.9624 49.1538 59.235 51.28L60.1257 51.864C60.4245 52.0529 60.6827 52.2994 60.8853 52.5891C61.088 52.8788 61.231 53.2059 61.3061 53.5514C61.3812 53.8969 61.3868 54.2538 61.3227 54.6015C61.2585 54.9491 61.1259 55.2806 60.9325 55.5765C60.7391 55.8725 60.4888 56.127 60.1961 56.3253C59.9034 56.5236 59.5742 56.6618 59.2277 56.7317C58.8811 56.8016 58.5241 56.8019 58.1775 56.7326C57.8308 56.6633 57.5014 56.5258 57.2083 56.328L56.2537 55.704C55.0305 56.7735 53.5738 57.5416 52.0003 57.9466V58.6666C52.0003 59.3739 51.7194 60.0522 51.2193 60.5522C50.7192 61.0523 50.0409 61.3333 49.3337 61.3333C48.6264 61.3333 47.9481 61.0523 47.448 60.5522C46.9479 60.0522 46.667 59.3739 46.667 58.6666V57.9466C45.0937 57.5424 43.6371 56.7752 42.4137 55.7066L41.459 56.328C40.8672 56.6913 40.157 56.8096 39.4795 56.6574C38.8019 56.5053 38.2104 56.0949 37.8307 55.5134C37.4511 54.932 37.3132 54.2253 37.4465 53.5438C37.5797 52.8623 37.9736 52.2596 38.5443 51.864L39.4323 51.2826C38.7043 49.1556 38.7043 46.847 39.4323 44.72L38.5417 44.1386C37.9493 43.7518 37.535 43.1455 37.3897 42.4531C37.2444 41.7607 37.3801 41.0389 37.767 40.4466C38.1539 39.8543 38.7602 39.4399 39.4526 39.2947C40.1449 39.1494 40.8667 39.2851 41.459 39.672L42.4137 40.296C43.6368 39.2264 45.0935 38.4583 46.667 38.0533V37.3333C46.667 36.626 46.9479 35.9478 47.448 35.4477C47.9481 34.9476 48.6264 34.6666 49.3337 34.6666ZM49.3337 43.048C48.4949 43.0433 47.6677 43.2438 46.924 43.6318C46.1804 44.0199 45.5429 44.5839 45.067 45.2746C44.531 46.0586 44.2243 46.992 44.2243 48C44.2243 49.008 44.531 49.9413 45.0643 50.7253C45.9763 52.0586 47.539 52.952 49.3337 52.952C50.1729 52.957 51.0007 52.7568 51.7448 52.3687C52.4889 51.9806 53.1269 51.4164 53.603 50.7253C54.1363 49.9413 54.4457 49.008 54.4457 48C54.4457 46.992 54.1363 46.0586 53.603 45.2773C53.1274 44.5861 52.49 44.0216 51.7464 43.633C51.0027 43.2445 50.1727 43.0436 49.3337 43.048ZM28.0003 5.33329C28.0003 4.62605 27.7194 3.94777 27.2193 3.44767C26.7192 2.94758 26.0409 2.66663 25.3337 2.66663C24.6264 2.66663 23.9481 2.94758 23.448 3.44767C22.9479 3.94777 22.667 4.62605 22.667 5.33329V8.82663C24.4431 8.72789 26.2215 8.67721 28.0003 8.67463V5.33329ZM41.3337 8.82663C39.5576 8.72789 37.7791 8.67721 36.0003 8.67463V5.33329C36.0003 4.62605 36.2813 3.94777 36.7814 3.44767C37.2815 2.94758 37.9598 2.66663 38.667 2.66663C39.3742 2.66663 40.0525 2.94758 40.5526 3.44767C41.0527 3.94777 41.3337 4.62605 41.3337 5.33329V8.82663ZM55.3257 28C55.3097 26.0266 55.2723 24.256 55.1737 22.6666H58.667C59.3742 22.6666 60.0525 22.9476 60.5526 23.4477C61.0527 23.9478 61.3337 24.626 61.3337 25.3333C61.3337 26.0405 61.0527 26.7188 60.5526 27.2189C60.0525 27.719 59.3742 28 58.667 28H55.3257ZM22.667 55.1733C24.2563 55.272 26.027 55.3093 28.0003 55.3253V58.6666C28.0003 59.3739 27.7194 60.0522 27.2193 60.5522C26.7192 61.0523 26.0409 61.3333 25.3337 61.3333C24.6264 61.3333 23.9481 61.0523 23.448 60.5522C22.9479 60.0522 22.667 59.3739 22.667 58.6666V55.1733ZM8.67499 36C8.69099 37.9733 8.72833 39.744 8.82699 41.3333H5.33366C4.62641 41.3333 3.94814 41.0523 3.44804 40.5522C2.94794 40.0521 2.66699 39.3739 2.66699 38.6666C2.66699 37.9594 2.94794 37.2811 3.44804 36.781C3.94814 36.2809 4.62641 36 5.33366 36H8.67499ZM8.82699 22.6666C8.72826 24.4427 8.67757 26.2211 8.67499 28H5.33366C4.62641 28 3.94814 27.719 3.44804 27.2189C2.94794 26.7188 2.66699 26.0405 2.66699 25.3333C2.66699 24.626 2.94794 23.9478 3.44804 23.4477C3.94814 22.9476 4.62641 22.6666 5.33366 22.6666H8.82699Z" fill="#063622"/>
<path opacity="0.4" d="M31.851 8.66663H32.1497C37.051 8.66663 40.9337 8.66663 43.971 9.07463C47.0963 9.49596 49.627 10.3813 51.6243 12.376C53.619 14.3733 54.5043 16.904 54.9257 20.0293C55.3337 23.0693 55.3337 26.9493 55.3337 31.8506V32.1093C55.3337 32.9786 55.3337 33.416 55.171 33.4826C55.0083 33.5493 54.6643 33.2213 53.9843 32.5573C53.2096 31.8028 52.2629 31.2482 51.226 30.9412C50.1891 30.6342 49.093 30.584 48.0324 30.795C46.9718 31.0061 45.9784 31.4719 45.138 32.1525C44.2976 32.833 43.6353 33.7077 43.2083 34.7013C43.1694 34.798 43.1249 34.8924 43.075 34.984C43.0197 35.0737 42.9472 35.1517 42.8617 35.2133C42.7816 35.2648 42.6988 35.312 42.6137 35.3546C42.5239 35.4044 42.4313 35.4489 42.3363 35.488C42.2291 35.5279 42.1137 35.5408 42.0003 35.5253C41.8904 35.5072 41.7818 35.4823 41.675 35.4506C40.3536 35.1089 38.9592 35.1808 37.6799 35.6566C36.4007 36.1325 35.2982 36.9893 34.5214 38.1116C33.7446 39.2338 33.3307 40.5673 33.3358 41.9322C33.3409 43.2971 33.7645 44.6275 34.5497 45.744C34.7737 46.064 34.8857 46.224 34.923 46.3573C34.9603 46.4906 34.9497 46.6666 34.923 47.0186C34.8746 47.6728 34.8746 48.3297 34.923 48.984C34.9497 49.336 34.9603 49.512 34.923 49.6453C34.8857 49.7786 34.7737 49.9386 34.5497 50.2586C33.8286 51.2832 33.4109 52.4902 33.3443 53.7413C33.307 54.4346 33.2883 54.7813 33.1817 54.9546C33.1126 55.0759 33.0085 55.1735 32.883 55.2346C32.7043 55.3333 32.419 55.3333 31.851 55.3333C26.9497 55.3333 23.067 55.3333 20.0297 54.9253C16.9043 54.504 14.3737 53.6186 12.3763 51.624C10.3817 49.6266 9.49633 47.0986 9.07499 43.9706C8.66699 40.9306 8.66699 37.0506 8.66699 32.152V31.8506C8.66699 26.9493 8.66699 23.0666 9.07499 20.0293C9.49633 16.904 10.3817 14.3733 12.3763 12.376C14.3737 10.3813 16.9043 9.49596 20.0297 9.07463C23.0697 8.66663 26.9497 8.66663 31.851 8.66663Z" fill="#063622"/>
<path fill-rule="evenodd" clip-rule="evenodd" d="M21.333 19.3334C20.8026 19.3334 20.2939 19.5441 19.9188 19.9192C19.5437 20.2942 19.333 20.8029 19.333 21.3334C19.333 21.8638 19.5437 22.3725 19.9188 22.7476C20.2939 23.1227 20.8026 23.3334 21.333 23.3334H31.9997C32.5301 23.3334 33.0388 23.1227 33.4139 22.7476C33.789 22.3725 33.9997 21.8638 33.9997 21.3334C33.9997 20.8029 33.789 20.2942 33.4139 19.9192C33.0388 19.5441 32.5301 19.3334 31.9997 19.3334H21.333Z" fill="#063622"/>
</svg>
