<svg width="64" height="64" viewBox="0 0 64 64" fill="none" xmlns="http://www.w3.org/2000/svg">
<path opacity="0.4" d="M29.1096 3.99483C30.0909 3.62416 31.0563 3.3335 32.0029 3.3335C32.9469 3.3335 33.9149 3.62416 34.8963 3.99483C35.8909 4.36816 37.1309 4.92016 38.6829 5.60816C40.9576 6.61883 43.9629 7.77883 47.1843 8.6935C49.5363 9.36283 51.4376 9.90416 52.8776 10.4615C54.3256 11.0215 55.6376 11.7202 56.5203 12.8882C57.3736 14.0215 57.7043 15.3442 57.8563 16.7735C58.0029 18.1495 58.0029 19.8775 58.0029 21.9708V29.8215C58.0029 37.9708 54.3229 44.4348 49.8776 49.2508C45.4456 54.0508 40.1656 57.3175 36.6856 59.1548L36.5176 59.2428C35.0349 60.0268 33.8243 60.6668 32.0029 60.6668C30.1816 60.6668 28.9709 60.0268 27.4883 59.2428L27.3203 59.1548C23.8403 57.3175 18.5603 54.0508 14.1256 49.2508C9.68026 44.4348 6.00293 37.9708 6.00293 29.8215V21.9735C6.00293 19.8802 6.00293 18.1522 6.14693 16.7735C6.29893 15.3468 6.62693 14.0268 7.48293 12.8908C8.36826 11.7228 9.68026 11.0242 11.1283 10.4642C12.5683 9.90416 14.4696 9.3655 16.8189 8.69616C19.7211 7.86157 22.5632 6.83075 25.3256 5.61083C26.8723 4.92283 28.1149 4.3735 29.1069 3.9975" fill="#063622"/>
<path d="M34.6108 14.248C35.8508 14.7546 36.7388 15.9866 36.7388 17.4906V27.176H41.2934C42.8348 27.176 43.9308 28.184 44.3868 29.2826C44.8428 30.3813 44.7788 31.7893 43.8748 32.9093L33.2134 46.0826C32.2081 47.3226 30.6534 47.6026 29.3868 47.0853C28.7493 46.8179 28.2064 46.366 27.8276 45.7878C27.4489 45.2095 27.2517 44.5312 27.2614 43.84V34.1546H22.7041C21.1628 34.1546 20.0668 33.1466 19.6108 32.048C19.1548 30.9546 19.2188 29.5413 20.1228 28.424L30.7841 15.2506C31.7894 14.008 33.3441 13.7306 34.6108 14.248Z" fill="#063622"/>
</svg>
