<svg width="200" height="56" viewBox="0 0 200 56" fill="none" xmlns="http://www.w3.org/2000/svg">
<g opacity="0.56">
<path d="M32.4289 6H15.5711L2 19.5711V36.4289L15.5711 50H32.4289L46 36.4289V19.5711L32.4289 6ZM17.9036 36.641L9.20966 27.947L17.9036 19.253C21.1904 15.9663 26.5976 15.9663 29.8844 19.253L38.5783 27.947L29.8844 36.641C26.5976 39.9277 21.2964 39.9277 17.9036 36.641Z" fill="white"/>
<path d="M65.3395 38.2401C68.0395 38.2401 70.2595 36.8601 70.9495 34.7901V38.0001H74.9395V29.9001C74.9395 28.0701 73.4995 26.5101 71.5495 26.5101H65.8495V29.9001H69.8995C70.4095 29.9001 70.7395 30.2301 70.7395 30.7401C70.7395 32.6901 68.1595 34.5801 65.5495 34.5801C62.0695 34.5801 59.3095 31.8501 59.3095 27.5001C59.3095 23.1501 62.0695 20.6301 65.6395 20.6301C68.3395 20.6301 70.1995 22.1001 70.5295 24.3501H74.9995C74.7295 19.8501 70.9495 16.7601 65.6695 16.7601C60.1195 16.7601 55.0195 20.3301 55.0195 27.5001C55.0195 34.6701 59.9695 38.2401 65.3395 38.2401Z" fill="white"/>
<path d="M76.6523 38.0001H80.8223V16.3101H76.6523V38.0001Z" fill="white"/>
<path d="M89.8174 38.2401C94.4674 38.2401 97.7974 34.9401 97.7974 30.4401C97.7974 25.9401 94.4674 22.6401 89.8174 22.6401C85.1674 22.6401 81.8374 25.9401 81.8374 30.4401C81.8374 34.9401 85.1674 38.2401 89.8174 38.2401ZM89.8174 34.6401C87.5674 34.6401 86.0374 32.9301 86.0374 30.4401C86.0374 27.9201 87.5674 26.2101 89.8174 26.2101C92.0674 26.2101 93.5974 27.9201 93.5974 30.4401C93.5974 32.9301 92.0674 34.6401 89.8174 34.6401Z" fill="white"/>
<path d="M107.128 38.2401C111.598 38.2401 114.268 35.1501 114.268 30.4401C114.268 25.7301 111.598 22.6401 107.188 22.6401C105.298 22.6401 103.828 23.3601 102.988 24.4701V16.3101H98.8184V38.0001H102.988V36.3501C103.828 37.5201 105.388 38.2401 107.128 38.2401ZM106.468 34.6401C104.218 34.6401 102.748 32.9601 102.748 30.4401C102.748 27.8901 104.218 26.2101 106.468 26.2101C108.658 26.2101 110.158 27.8901 110.158 30.4401C110.158 32.9601 108.658 34.6401 106.468 34.6401Z" fill="white"/>
<path d="M121.249 22.6401C117.109 22.6401 114.649 25.0701 114.469 28.1001H118.189C118.249 26.8401 119.179 25.7001 121.009 25.7001C122.719 25.7001 123.709 26.5701 123.709 27.8301C123.709 28.4601 123.319 28.9401 122.569 28.9401H120.019C116.719 28.9401 114.499 30.7401 114.499 33.7101C114.499 36.2901 116.509 38.2401 119.449 38.2401C121.519 38.2401 123.199 37.3101 123.709 35.9001V38.0001H127.849V28.2801C127.849 24.8601 125.059 22.6401 121.249 22.6401ZM120.499 35.2101C119.329 35.2101 118.489 34.5201 118.489 33.5301C118.489 32.3601 119.389 31.5801 120.649 31.5801H123.709V31.7901C123.709 33.7101 122.539 35.2101 120.499 35.2101Z" fill="white"/>
<path d="M129.451 38.0001H133.621V16.3101H129.451V38.0001Z" fill="white"/>
<path d="M135.836 38.0001H144.416C148.856 38.0001 151.916 35.7201 151.916 31.7301C151.916 28.9701 150.296 27.2901 148.376 26.5401C149.606 25.8801 150.836 24.3801 150.836 22.4001C150.836 18.8901 147.986 17.0001 144.176 17.0001H135.836V38.0001ZM140.276 25.0101V20.5701H143.756C145.766 20.5701 146.666 21.3801 146.666 22.7901C146.666 24.2001 145.766 25.0101 143.846 25.0101H140.276ZM140.276 34.1001V28.8201H144.026C146.516 28.8201 147.626 29.7801 147.626 31.4901C147.626 33.2001 146.516 34.1001 144.026 34.1001H140.276Z" fill="white"/>
<path d="M159.171 22.6401C155.031 22.6401 152.571 25.0701 152.391 28.1001H156.111C156.171 26.8401 157.101 25.7001 158.931 25.7001C160.641 25.7001 161.631 26.5701 161.631 27.8301C161.631 28.4601 161.241 28.9401 160.491 28.9401H157.941C154.641 28.9401 152.421 30.7401 152.421 33.7101C152.421 36.2901 154.431 38.2401 157.371 38.2401C159.441 38.2401 161.121 37.3101 161.631 35.9001V38.0001H165.771V28.2801C165.771 24.8601 162.981 22.6401 159.171 22.6401ZM158.421 35.2101C157.251 35.2101 156.411 34.5201 156.411 33.5301C156.411 32.3601 157.311 31.5801 158.571 31.5801H161.631V31.7901C161.631 33.7101 160.461 35.2101 158.421 35.2101Z" fill="white"/>
<path d="M167.133 38.0001H171.333V29.7201C171.333 27.7701 172.623 26.3601 174.453 26.3601C176.193 26.3601 177.363 27.6801 177.363 29.5101V38.0001H181.563V28.5801C181.563 25.1001 179.343 22.6401 175.923 22.6401C173.853 22.6401 172.173 23.5101 171.333 24.9801V22.8801H167.133V38.0001Z" fill="white"/>
<path d="M193.533 38.0001H198.573L192.063 28.8201L198.093 22.8801H192.813L187.563 28.0401V16.3101H183.363V38.0001H187.563V33.2601L189.243 31.6101L193.533 38.0001Z" fill="white"/>
</g>
</svg>
