<svg width="64" height="64" viewBox="0 0 64 64" fill="none" xmlns="http://www.w3.org/2000/svg">
<path opacity="0.4" fill-rule="evenodd" clip-rule="evenodd" d="M10.5733 8.22408C9.16533 9.47208 8 11.1921 8 13.3334V26.6347C8 29.1521 8.408 30.5707 10.5547 31.9761C11.4222 32.545 12.3938 33.0819 13.4693 33.5868C18.704 36.0534 25.6267 37.3334 32 37.3334C38.3733 37.3334 45.296 36.0508 50.5333 33.5868C51.6071 33.0801 52.5778 32.5432 53.4453 31.9761C55.592 30.5707 56 29.1521 56 26.6347V13.3334C56 11.1921 54.8347 9.47208 53.4267 8.22408C52.0133 6.97341 50.1253 5.96808 48.0213 5.17875C43.792 3.59208 38.128 2.66675 32 2.66675C25.872 2.66675 20.208 3.59208 15.9787 5.17875C13.872 5.96808 11.984 6.97341 10.5733 8.22408ZM14.112 12.2161C13.16 13.0587 13.16 13.6081 14.112 14.4507C14.8133 15.0747 15.944 15.7467 17.528 16.3707C20.0613 17.3654 22.6347 17.8907 25.24 18.2347C27.3333 18.5121 29.608 18.6667 32 18.6667C37.656 18.6667 42.6587 17.8027 46.1493 16.4934C47.904 15.8347 49.1387 15.1147 49.888 14.4507C50.84 13.6081 50.84 13.0587 49.888 12.2161C49.1413 11.5494 47.904 10.8294 46.1493 10.1734C42.656 8.86675 37.6533 8.00008 32 8.00008C26.3467 8.00008 21.3413 8.86408 17.8507 10.1734C16.096 10.8321 14.8613 11.5521 14.112 12.2161Z" fill="#063622"/>
<path fill-rule="evenodd" clip-rule="evenodd" d="M16.7511 28.34C16.904 27.8323 17.2523 27.4061 17.7193 27.1551C18.1864 26.9041 18.734 26.8488 19.2418 27.0014C20.7458 27.4547 22.4445 27.828 24.3005 28.1107C24.5614 28.1486 24.8123 28.2378 25.0386 28.3731C25.265 28.5083 25.4623 28.687 25.6194 28.8988C25.7764 29.1107 25.89 29.3515 25.9536 29.6074C26.0172 29.8633 26.0296 30.1292 25.9901 30.3899C25.9505 30.6506 25.8598 30.9009 25.7231 31.1264C25.5865 31.3519 25.4066 31.5482 25.1938 31.7039C24.981 31.8596 24.7395 31.9717 24.4832 32.0338C24.2269 32.0958 23.9609 32.1065 23.7005 32.0654C21.8031 31.7888 19.928 31.3762 18.0898 30.8307C17.5821 30.6778 17.1559 30.3296 16.9048 29.8625C16.6538 29.3955 16.5985 28.8478 16.7511 28.34Z" fill="#063622"/>
<path opacity="0.4" d="M8.26133 37.1761C8.52 37.0214 8.904 37.2294 9.67467 37.6428C10.1742 37.9148 10.6818 38.1717 11.1973 38.4134C17.6267 41.4374 24.9227 42.6668 32 42.6668C38.9627 42.6668 46.704 41.2828 52.8 38.4134C53.3173 38.1717 53.8258 37.9148 54.3253 37.6428C55.096 37.2294 55.48 37.0214 55.7387 37.1761C55.9973 37.3308 56 37.7548 56 38.6028V50.6668C56 52.8081 54.8347 54.5281 53.4267 55.7761C52.0133 57.0268 50.1253 58.0294 48.0213 58.8214C43.792 60.4054 38.128 61.3334 32 61.3334C25.872 61.3334 20.208 60.4054 15.9787 58.8214C13.872 58.0294 11.984 57.0268 10.5733 55.7761C9.16533 54.5281 8 52.8081 8 50.6668V38.6054C8 37.7548 8 37.3308 8.26133 37.1761Z" fill="#063622"/>
<path fill-rule="evenodd" clip-rule="evenodd" d="M16.7511 47.0065C16.904 46.4988 17.2523 46.0726 17.7193 45.8216C18.1864 45.5706 18.734 45.5153 19.2418 45.6679C20.7458 46.1212 22.4445 46.4945 24.3005 46.7772C24.5614 46.8152 24.8123 46.9043 25.0386 47.0396C25.265 47.1748 25.4623 47.3535 25.6194 47.5654C25.7764 47.7772 25.89 48.018 25.9536 48.2739C26.0172 48.5298 26.0296 48.7957 25.9901 49.0564C25.9505 49.3171 25.8598 49.5674 25.7231 49.7929C25.5865 50.0184 25.4066 50.2147 25.1938 50.3704C24.981 50.5261 24.7395 50.6382 24.4832 50.7003C24.2269 50.7623 23.9609 50.773 23.7005 50.7319C21.8031 50.4553 19.928 50.0427 18.0898 49.4972C17.5821 49.3443 17.1559 48.9961 16.9048 48.529C16.6538 48.062 16.5985 47.5143 16.7511 47.0065Z" fill="#063622"/>
</svg>
