<svg width="64" height="64" viewBox="0 0 64 64" fill="none" xmlns="http://www.w3.org/2000/svg">
<path opacity="0.4" d="M35.5467 9.23451C37.3227 9.75184 38.8267 10.1865 40.0133 10.6932C41.2747 11.2318 42.368 11.9225 43.1973 13.0585C44.024 14.1865 44.3627 15.4452 44.52 16.8265C44.6667 18.1332 44.6667 19.7465 44.6667 21.6692V58.6665C44.6667 59.1969 44.456 59.7057 44.0809 60.0807C43.7058 60.4558 43.1971 60.6665 42.6667 60.6665H8C7.46957 60.6665 6.96086 60.4558 6.58579 60.0807C6.21071 59.7057 6 59.1969 6 58.6665V17.7572C6 14.5412 6 11.9172 6.28267 9.89584C6.576 7.80251 7.224 5.93584 8.872 4.63718C10.5387 3.32518 12.4933 3.17318 14.552 3.44784C16.5173 3.71451 18.968 4.42384 21.9387 5.28784L35.5467 9.23451Z" fill="#063622"/>
<path d="M44.667 24.6772V30.2452L46.9683 30.9359C48.859 31.5012 50.0563 31.8666 50.9283 32.2426C51.7363 32.5892 51.995 32.8426 52.1417 33.0372C52.2857 33.2346 52.4537 33.5546 52.555 34.4292C52.6617 35.3706 52.667 36.6239 52.667 38.5972V58.6612H58.0003V38.4532C58.0003 36.6666 58.0003 35.0986 57.851 33.8132C57.691 32.4186 57.3283 31.0746 56.419 29.8532C55.5123 28.6319 54.3283 27.9012 53.0403 27.3466C51.851 26.8319 50.3497 26.3812 48.6377 25.8692L44.667 24.6772Z" fill="#063622"/>
<path fill-rule="evenodd" clip-rule="evenodd" d="M19.333 21.3335C19.333 20.8031 19.5437 20.2944 19.9188 19.9193C20.2939 19.5442 20.8026 19.3335 21.333 19.3335H29.333C29.8634 19.3335 30.3721 19.5442 30.7472 19.9193C31.1223 20.2944 31.333 20.8031 31.333 21.3335C31.333 21.8639 31.1223 22.3726 30.7472 22.7477C30.3721 23.1228 29.8634 23.3335 29.333 23.3335H21.333C20.8026 23.3335 20.2939 23.1228 19.9188 22.7477C19.5437 22.3726 19.333 21.8639 19.333 21.3335ZM19.333 32.0002C19.333 31.4697 19.5437 30.961 19.9188 30.586C20.2939 30.2109 20.8026 30.0002 21.333 30.0002H29.333C29.8634 30.0002 30.3721 30.2109 30.7472 30.586C31.1223 30.961 31.333 31.4697 31.333 32.0002C31.333 32.5306 31.1223 33.0393 30.7472 33.4144C30.3721 33.7894 29.8634 34.0002 29.333 34.0002H21.333C20.8026 34.0002 20.2939 33.7894 19.9188 33.4144C19.5437 33.0393 19.333 32.5306 19.333 32.0002Z" fill="#063622"/>
<path d="M23.8803 40.6665H26.787C27.9417 40.6665 29.0003 40.6665 29.859 40.7812C30.8083 40.9092 31.811 41.2078 32.6323 42.0345C33.459 42.8585 33.7577 43.8585 33.8857 44.8078C34.0003 45.6692 34.0003 46.7278 34.0003 47.8798V58.6665H30.0003V47.9998C30.0003 46.6878 29.9977 45.9012 29.9203 45.3412C29.9058 45.1893 29.8726 45.0397 29.8217 44.8958C29.763 44.8718 29.5843 44.7812 29.3283 44.7465C28.7657 44.6718 27.9817 44.6665 26.667 44.6665H24.0003C22.6883 44.6665 21.9043 44.6718 21.3417 44.7465C21.1897 44.7611 21.0402 44.7942 20.8963 44.8452C20.8723 44.9038 20.7817 45.0852 20.747 45.3412C20.6723 45.9012 20.667 46.6878 20.667 47.9998V58.6665H16.667V47.8798C16.667 46.7278 16.667 45.6665 16.7817 44.8078C16.9097 43.8585 17.2083 42.8585 18.035 42.0345C18.8617 41.2105 19.859 40.9092 20.8083 40.7812C21.6697 40.6665 22.7283 40.6665 23.8803 40.6665Z" fill="#063622"/>
<path fill-rule="evenodd" clip-rule="evenodd" d="M2.66699 58.0002C2.66699 57.2929 2.94794 56.6146 3.44804 56.1145C3.94814 55.6144 4.62641 55.3335 5.33366 55.3335H58.667C59.3742 55.3335 60.0525 55.6144 60.5526 56.1145C61.0527 56.6146 61.3337 57.2929 61.3337 58.0002C61.3337 58.7074 61.0527 59.3857 60.5526 59.8858C60.0525 60.3859 59.3742 60.6668 58.667 60.6668H5.33366C4.62641 60.6668 3.94814 60.3859 3.44804 59.8858C2.94794 59.3857 2.66699 58.7074 2.66699 58.0002Z" fill="#063622"/>
</svg>
