<svg width="186" height="56" viewBox="0 0 186 56" fill="none" xmlns="http://www.w3.org/2000/svg">
<g opacity="0.5">
<path d="M17.5809 7.67464C20.2501 6.56911 23.111 6 26 6V17C24.5554 17 23.125 17.2845 21.7905 17.8374C20.4559 18.3901 19.2432 19.2004 18.2218 20.2218C17.2004 21.2432 16.3901 22.4559 15.8374 23.7905C15.2845 25.125 15 26.5554 15 28H4C4 25.111 4.56911 22.2501 5.67464 19.5809C6.7803 16.9117 8.40075 14.4866 10.4436 12.4436C12.4866 10.4008 14.9117 8.7803 17.5809 7.67464Z" fill="white"/>
<path d="M4 28C4 30.889 4.56911 33.7499 5.67464 36.4191C6.7803 39.0883 8.40075 41.5134 10.4436 43.5564C12.4866 45.5992 14.9117 47.2197 17.5809 48.3254C20.2501 49.4309 23.111 50 26 50C28.889 50 31.7499 49.4309 34.4191 48.3254C37.0883 47.2197 39.5134 45.5992 41.5564 43.5564C43.5992 41.5134 45.2197 39.0883 46.3254 36.4191C47.4309 33.7499 48 30.889 48 28H37C37 29.4446 36.7155 30.875 36.1626 32.2095C35.6099 33.5441 34.7996 34.7568 33.7782 35.7782C32.7568 36.7996 31.5441 37.6099 30.2095 38.1626C28.875 38.7155 27.4446 39 26 39C24.5554 39 23.125 38.7155 21.7905 38.1626C20.4559 37.6099 19.2432 36.7996 18.2218 35.7782C17.2004 34.7568 16.3901 33.5441 15.8374 32.2095C15.2845 30.875 15 29.4446 15 28H4Z" fill="white"/>
<path opacity="0.5" d="M26 21C22.134 21 19 24.134 19 28H33C33 24.134 29.866 21 26 21Z" fill="white"/>
<path d="M26 35C22.134 35 19 31.866 19 28H33C33 31.866 29.866 35 26 35Z" fill="white"/>
<path d="M70.8164 23.4025C70.7369 22.6004 70.3955 21.9773 69.7923 21.5332C69.189 21.0891 68.3704 20.867 67.3363 20.867C66.6336 20.867 66.0404 20.9664 65.5565 21.1653C65.0726 21.3575 64.7013 21.626 64.4428 21.9707C64.1909 22.3154 64.065 22.7065 64.065 23.144C64.0517 23.5086 64.128 23.8268 64.2937 24.0985C64.466 24.3703 64.7013 24.6056 64.9996 24.8045C65.2979 24.9967 65.6426 25.1658 66.0337 25.3116C66.4248 25.4508 66.8424 25.5701 67.2866 25.6696L69.1161 26.1071C70.0044 26.3059 70.8197 26.5711 71.5621 26.9025C72.3046 27.234 72.9476 27.6416 73.4911 28.1255C74.0347 28.6094 74.4556 29.1795 74.7539 29.8358C75.0588 30.492 75.2146 31.2444 75.2212 32.0929C75.2146 33.3391 74.8964 34.4196 74.2667 35.3343C73.6436 36.2425 72.7421 36.9485 71.5621 37.4522C70.3889 37.9494 68.9736 38.198 67.3164 38.198C65.6725 38.198 64.2406 37.9461 63.021 37.4423C61.8079 36.9385 60.86 36.1928 60.1772 35.2051C59.5011 34.2108 59.1464 32.9811 59.1133 31.5162H63.2795C63.3259 32.1989 63.5214 32.769 63.8661 33.2264C64.2174 33.6771 64.6848 34.0185 65.2681 34.2505C65.8581 34.4759 66.5243 34.5886 67.2667 34.5886C67.9959 34.5886 68.6289 34.4825 69.1658 34.2704C69.7094 34.0583 70.1303 33.7633 70.4286 33.3855C70.7269 33.0076 70.8761 32.5735 70.8761 32.0829C70.8761 31.6255 70.7402 31.2411 70.4684 30.9295C70.2032 30.618 69.8121 30.3528 69.2951 30.1341C68.7847 29.9153 68.1583 29.7164 67.4158 29.5375L65.1985 28.9806C63.4817 28.563 62.1261 27.9101 61.1317 27.0218C60.1374 26.1336 59.6436 24.9371 59.6502 23.4324C59.6436 22.1994 59.9717 21.1222 60.6346 20.2008C61.3041 19.2794 62.2222 18.5602 63.3888 18.0431C64.5555 17.5261 65.8813 17.2676 67.3661 17.2676C68.8775 17.2676 70.1966 17.5261 71.3235 18.0431C72.457 18.5602 73.3387 19.2794 73.9684 20.2008C74.5981 21.1222 74.9229 22.1895 74.9428 23.4025H70.8164Z" fill="white"/>
<path d="M84.9979 38.2079C83.4268 38.2079 82.0746 37.8897 80.9411 37.2534C79.8142 36.6104 78.9458 35.7022 78.3359 34.5289C77.7261 33.349 77.4212 31.9537 77.4212 30.3429C77.4212 28.7718 77.7261 27.3931 78.3359 26.2065C78.9458 25.0199 79.8042 24.0952 80.9112 23.4324C82.0249 22.7695 83.3307 22.438 84.8288 22.438C85.8364 22.438 86.7744 22.6004 87.6428 22.9252C88.5178 23.2434 89.2801 23.724 89.9297 24.367C90.5859 25.01 91.0964 25.8187 91.4609 26.7931C91.8255 27.7609 92.0078 28.8945 92.0078 30.1937V31.3571H79.1115V28.7321H88.0206C88.0206 28.1222 87.888 27.582 87.6229 27.1113C87.3577 26.6407 86.9898 26.2728 86.5192 26.0076C86.0552 25.7359 85.5149 25.6 84.8984 25.6C84.2554 25.6 83.6854 25.7491 83.1882 26.0474C82.6977 26.3391 82.3132 26.7335 82.0348 27.2306C81.7564 27.7212 81.6139 28.2681 81.6072 28.8713V31.367C81.6072 32.1227 81.7465 32.7756 82.0249 33.3258C82.3099 33.876 82.7109 34.3002 83.228 34.5985C83.745 34.8968 84.3582 35.046 85.0675 35.046C85.5381 35.046 85.969 34.9797 86.3601 34.8471C86.7512 34.7145 87.0859 34.5157 87.3643 34.2505C87.6428 33.9854 87.8549 33.6606 88.0007 33.2761L91.9183 33.5346C91.7195 34.4759 91.3118 35.2979 90.6953 36.0005C90.0855 36.6966 89.2966 37.2401 88.3288 37.6312C87.3677 38.0157 86.2573 38.2079 84.9979 38.2079Z" fill="white"/>
<path d="M101.653 43.9551C100.281 43.9551 99.1039 43.7662 98.1229 43.3883C97.1484 43.0171 96.3729 42.51 95.7962 41.867C95.2195 41.224 94.8449 40.5015 94.6726 39.6994L98.5902 39.1724C98.7095 39.4773 98.8984 39.7624 99.157 40.0275C99.4155 40.2927 99.7569 40.5048 100.181 40.6639C100.612 40.8296 101.136 40.9125 101.752 40.9125C102.674 40.9125 103.433 40.6871 104.029 40.2363C104.632 39.7922 104.934 39.0465 104.934 37.9991V35.2051H104.755C104.569 35.6293 104.291 36.0304 103.92 36.4082C103.549 36.786 103.071 37.0943 102.488 37.3329C101.905 37.5716 101.209 37.6909 100.4 37.6909C99.2531 37.6909 98.209 37.4257 97.2678 36.8954C96.3331 36.3585 95.5874 35.5398 95.0305 34.4395C94.4804 33.3324 94.2053 31.9338 94.2053 30.2434C94.2053 28.5133 94.487 27.0682 95.0504 25.9082C95.6139 24.7482 96.3629 23.8798 97.2976 23.3031C98.2389 22.7264 99.2696 22.438 100.39 22.438C101.245 22.438 101.961 22.5839 102.538 22.8755C103.114 23.1606 103.578 23.5185 103.93 23.9494C104.288 24.3736 104.563 24.7913 104.755 25.2022H104.914V22.6369H109.12V38.0588C109.12 39.358 108.802 40.4451 108.165 41.3201C107.529 42.1951 106.647 42.8514 105.521 43.2889C104.4 43.733 103.111 43.9551 101.653 43.9551ZM101.742 34.5091C102.425 34.5091 103.002 34.34 103.472 34.002C103.95 33.6573 104.314 33.1667 104.566 32.5304C104.825 31.8874 104.954 31.1184 104.954 30.2235C104.954 29.3287 104.828 28.5531 104.576 27.8968C104.324 27.234 103.96 26.7202 103.482 26.3556C103.005 25.9911 102.425 25.8088 101.742 25.8088C101.046 25.8088 100.46 25.9977 99.9822 26.3755C99.505 26.7467 99.1437 27.2638 98.8984 27.9267C98.6532 28.5895 98.5305 29.3552 98.5305 30.2235C98.5305 31.1052 98.6532 31.8675 98.8984 32.5105C99.1503 33.1468 99.5116 33.6407 99.9822 33.992C100.46 34.3367 101.046 34.5091 101.742 34.5091Z" fill="white"/>
<path d="M112.491 37.9096V22.6369H116.528V25.3315H116.707C117.025 24.4366 117.555 23.7306 118.298 23.2136C119.04 22.6966 119.928 22.438 120.962 22.438C122.01 22.438 122.901 22.6999 123.637 23.2235C124.373 23.7406 124.863 24.4432 125.109 25.3315H125.268C125.579 24.4565 126.143 23.7572 126.958 23.2335C127.78 22.7032 128.751 22.438 129.871 22.438C131.297 22.438 132.453 22.8921 133.342 23.8002C134.237 24.7018 134.684 25.9811 134.684 27.6383V37.9096H130.458V28.4735C130.458 27.6251 130.233 26.9887 129.782 26.5645C129.331 26.1402 128.768 25.9281 128.092 25.9281C127.323 25.9281 126.723 26.1734 126.292 26.6639C125.861 27.1478 125.646 27.7875 125.646 28.5829V37.9096H121.539V28.3841C121.539 27.635 121.324 27.0384 120.893 26.5943C120.469 26.1502 119.908 25.9281 119.212 25.9281C118.742 25.9281 118.317 26.0474 117.94 26.286C117.568 26.5181 117.273 26.8462 117.055 27.2704C116.836 27.688 116.727 28.1786 116.727 28.742V37.9096H112.491Z" fill="white"/>
<path d="M144.99 38.2079C143.419 38.2079 142.067 37.8897 140.933 37.2534C139.806 36.6104 138.938 35.7022 138.328 34.5289C137.718 33.349 137.413 31.9537 137.413 30.3429C137.413 28.7718 137.718 27.3931 138.328 26.2065C138.938 25.0199 139.796 24.0952 140.903 23.4324C142.017 22.7695 143.323 22.438 144.821 22.438C145.829 22.438 146.767 22.6004 147.635 22.9252C148.51 23.2434 149.272 23.724 149.922 24.367C150.578 25.01 151.089 25.8187 151.453 26.7931C151.818 27.7609 152 28.8945 152 30.1937V31.3571H139.104V28.7321H148.013C148.013 28.1222 147.88 27.582 147.615 27.1113C147.35 26.6407 146.982 26.2728 146.511 26.0076C146.047 25.7359 145.507 25.6 144.891 25.6C144.248 25.6 143.678 25.7491 143.18 26.0474C142.69 26.3391 142.305 26.7335 142.027 27.2306C141.749 27.7212 141.606 28.2681 141.599 28.8713V31.367C141.599 32.1227 141.739 32.7756 142.017 33.3258C142.302 33.876 142.703 34.3002 143.22 34.5985C143.737 34.8968 144.35 35.046 145.06 35.046C145.53 35.046 145.961 34.9797 146.352 34.8471C146.743 34.7145 147.078 34.5157 147.357 34.2505C147.635 33.9854 147.847 33.6606 147.993 33.2761L151.911 33.5346C151.712 34.4759 151.304 35.2979 150.688 36.0005C150.078 36.6966 149.289 37.2401 148.321 37.6312C147.36 38.0157 146.25 38.2079 144.99 38.2079Z" fill="white"/>
<path d="M159 29.0801V37.9096H154.764V22.6369H158.801V25.3315H158.98C159.318 24.4432 159.885 23.7406 160.68 23.2235C161.476 22.6999 162.44 22.438 163.574 22.438C164.634 22.438 165.559 22.67 166.348 23.1341C167.137 23.5981 167.75 24.2609 168.188 25.1227C168.625 25.9778 168.844 26.9986 168.844 28.1852V37.9096H164.608V28.9409C164.615 28.0062 164.376 27.277 163.892 26.7534C163.408 26.2231 162.742 25.9579 161.893 25.9579C161.323 25.9579 160.82 26.0806 160.382 26.3258C159.951 26.5711 159.613 26.929 159.368 27.3997C159.129 27.8637 159.007 28.4238 159 29.0801Z" fill="white"/>
<path d="M180.306 22.6369V25.8187H171.108V22.6369H180.306ZM173.196 18.9778H177.432V33.2164C177.432 33.6075 177.492 33.9125 177.611 34.1312C177.73 34.3433 177.896 34.4925 178.108 34.5787C178.327 34.6648 178.579 34.7079 178.864 34.7079C179.063 34.7079 179.262 34.6913 179.461 34.6582C179.659 34.6184 179.812 34.5886 179.918 34.5687L180.584 37.7207C180.372 37.787 180.074 37.8632 179.689 37.9494C179.305 38.0422 178.837 38.0985 178.287 38.1184C177.266 38.1582 176.372 38.0223 175.603 37.7108C174.84 37.3992 174.247 36.9153 173.823 36.2591C173.399 35.6028 173.19 34.7742 173.196 33.7733V18.9778Z" fill="white"/>
</g>
</svg>
